<svg width="608" height="572" viewBox="0 0 608 572" fill="none" xmlns="http://www.w3.org/2000/svg">
<g clip-path="url(#clip0_40_929)">
<g clip-path="url(#clip1_40_929)">
<path d="M597.337 406.159C613.634 367.37 607.377 326.078 598.035 302.632C595.587 296.485 589.756 292.348 583.135 292.063C557.982 290.975 516.836 298.732 485.554 327.025C474.991 320.842 462.74 317.24 449.644 317.24C447.658 317.24 445.708 317.374 443.758 317.538C442.045 306.713 439.33 297.074 436.263 289.372C433.815 283.225 427.984 279.088 421.363 278.803C390.925 277.424 337.157 289.08 305.699 334.327C290.921 302.966 264.948 281.348 244.83 270.585V208.282C244.83 161.28 217.46 118.415 175.634 98.1641V58.8341H176.502C181.143 58.8341 184.909 55.0742 184.909 50.4275V8.4066C184.897 3.75989 181.137 0 176.496 0H67.2346C62.594 0 58.828 3.75989 58.828 8.4066V50.4275C58.828 55.0742 62.594 58.8341 67.2346 58.8341H69.1966V98.1641C27.3701 118.409 0 161.274 0 208.282V554.696C0 563.971 7.52585 571.509 16.8132 571.509H121.622H228.023H559.149C567.063 571.509 573.903 565.994 575.579 558.256L604.753 423.78C605.834 418.824 604.601 413.636 601.406 409.664C600.246 408.237 598.843 407.125 597.337 406.159ZM427.619 357.991C432.709 354.323 438.735 351.881 445.277 351.128C446.71 350.964 448.162 350.854 449.638 350.854C454.57 350.854 459.265 351.826 463.584 353.551C468.881 355.665 473.582 358.939 477.385 363.057C482.116 368.184 485.457 374.592 486.787 381.723C487.206 383.977 487.456 386.291 487.456 388.672C487.456 393.896 486.386 398.876 484.467 403.408H479.735H462.46H445.544H430.523H414.803C414.274 402.169 413.825 400.887 413.43 399.581C412.385 396.125 411.808 392.468 411.808 388.672C411.82 376.044 418.071 364.861 427.619 357.991ZM317.064 393.944C329.431 327.949 384.104 315.235 408.364 312.879C409.415 317.167 410.466 322.518 411.146 328.586C391.363 341.306 378.194 363.464 378.194 388.678C378.194 393.732 378.741 398.658 379.743 403.414H353.995L388.988 346.122C391.399 342.162 390.154 336.987 386.194 334.569C382.233 332.14 377.058 333.397 374.641 337.358L334.29 403.414H317.738L316.286 402.381C316.639 399.526 316.9 396.714 317.064 393.944ZM228.017 314.768C230.89 310.82 233.696 307.436 236.15 304.709C238.744 306.44 241.69 308.56 244.824 311.069C264.097 326.491 290.186 356.716 282.174 403.414H256.414L244.824 344.233L244.472 342.448C243.585 337.892 239.169 334.904 234.607 335.815C231.212 336.483 228.709 339.107 228.017 342.278C227.78 343.371 227.75 344.519 227.974 345.685L228.017 345.898L239.278 403.414H228.017H223H212.631C212.121 401.926 211.641 400.45 211.21 398.986C210.372 396.143 209.655 393.325 209.114 390.561C207.353 381.571 207.116 373.025 207.918 365.013C208.507 359.115 209.649 353.515 211.21 348.236C212.091 345.272 213.075 342.393 214.168 339.635C218.049 329.862 223.133 321.48 228.017 314.768ZM88.1904 404.015C84.7585 404.914 81.6425 406.846 79.3647 409.664C76.1757 413.636 74.9427 418.824 76.0239 423.78L100.776 537.883H33.6203V208.282C33.6203 171.291 57.0118 137.84 91.8106 125.03C98.4192 122.606 102.817 116.295 102.817 109.255V58.8341H142.007V109.262C142.007 116.301 146.405 122.606 153.014 125.036C187.818 137.84 211.21 171.297 211.21 208.288V281.937C202.84 291.103 194.372 302.826 187.606 316.56C177.936 311.664 167.045 308.839 155.486 308.839C116.095 308.839 84.0478 340.88 84.0478 380.271C84.0417 388.599 85.5542 396.574 88.1904 404.015ZM177.547 403.414H125.637C120.657 397.006 117.662 388.988 117.662 380.265C117.662 359.407 134.627 342.442 155.486 342.442C163.224 342.442 170.422 344.786 176.429 348.795C172.937 365.554 172.669 383.97 177.547 403.414ZM564.366 451.339L545.591 537.883H244.824H228.017H211.204H135.174L113.495 437.933L113.301 437.034H191.001H198.685H211.21H226.134H228.023H244.83H246.337H261.006H282.885H305.529H353.746H365.116H375.886H397.206H403.809H424.278H474.997H502.064H508.205H527.223H555.194H567.47L564.366 451.339ZM561.165 403.414H519.533C520.535 398.658 521.082 393.732 521.082 388.678C521.082 374.628 516.945 361.539 509.906 350.478C530.551 332.711 555.717 327.548 570.155 326.145C574.158 342.563 578.27 374.319 561.165 403.414Z" fill="#FE6E63"/>
</g>
</g>
<defs>
<clipPath id="clip0_40_929">
<rect width="607.411" height="571.509" fill="white"/>
</clipPath>
<clipPath id="clip1_40_929">
<rect width="607.411" height="571.509" fill="white"/>
</clipPath>
</defs>
</svg>
